<?xml version="1.0" encoding="UTF-8"?>
<svg version="1.1" xmlns="http://www.w3.org/2000/svg" width="153" height="38">
<path d="M0 0 C4.2742558 1.5830577 6.26531794 4.50568404 9 8 C9.33 5.36 9.66 2.72 10 0 C11.89510699 -0.08160748 13.79124504 -0.13946459 15.6875 -0.1875 C16.74324219 -0.22230469 17.79898438 -0.25710938 18.88671875 -0.29296875 C22.3959108 0.03725635 24.2258024 0.85583995 27 3 C27.4375 5.5625 27.4375 5.5625 27 8 C26.34 8.66 25.68 9.32 25 10 C26.32 10 27.64 10 29 10 C28.505 8.515 28.505 8.515 28 7 C28 3 28 3 29.17578125 1.26171875 C31.62468598 -0.43206332 33.23958395 -0.30235387 36.1875 -0.1875 C37.08855469 -0.16042969 37.98960938 -0.13335937 38.91796875 -0.10546875 C39.94857422 -0.05326172 39.94857422 -0.05326172 41 0 C43.08351471 3.90659009 43.13112345 5.75828706 42 10 C42.99 10.33 43.98 10.66 45 11 C45 7.37 45 3.74 45 0 C46.65 0 48.3 0 50 0 C50 1.32 50 2.64 50 4 C51.98 4 53.96 4 56 4 C56 2.68 56 1.36 56 0 C57.98 0 59.96 0 62 0 C62.495 4.455 62.495 4.455 63 9 C63.70576172 8.02546875 63.70576172 8.02546875 64.42578125 7.03125 C65.04839844 6.1959375 65.67101562 5.360625 66.3125 4.5 C66.92738281 3.6646875 67.54226562 2.829375 68.17578125 1.96875 C69.07876953 0.99421875 69.07876953 0.99421875 70 0 C70.99 0 71.98 0 73 0 C74.60546875 1.75 74.60546875 1.75 76.1875 4 C76.71730469 4.7425 77.24710937 5.485 77.79296875 6.25 C78.19128906 6.8275 78.58960937 7.405 79 8 C79.144375 6.865625 79.28875 5.73125 79.4375 4.5625 C80 1 80 1 81 0 C82.66617115 -0.04063832 84.33388095 -0.042721 86 0 C86 2.64 86 5.28 86 8 C90.05920798 8.57449334 90.05920798 8.57449334 94 8 C96.49126669 5.62339412 98.25736814 2.95719346 100 0 C105.13328252 0.792311 106.87556452 4.09445564 110 8 C113.465 4.04 113.465 4.04 117 0 C122.09010542 2.54505271 123.76129399 4.2891549 127 9 C127 12.3 127 15.6 127 19 C82.45 19 37.9 19 -8 19 C-8 10 -8 10 -7 7 C-6.34 7 -5.68 7 -5 7 C-4.9175 6.401875 -4.835 5.80375 -4.75 5.1875 C-3.79544128 2.4033704 -2.42867729 1.56688858 0 0 Z M16 3 C16 4.65 16 6.3 16 8 C17.65 7.67 19.3 7.34 21 7 C21 6.01 21 5.02 21 4 C19.35 3.67 17.7 3.34 16 3 Z M50 7 C50 8.32 50 9.64 50 11 C51.98 11 53.96 11 56 11 C56 9.68 56 8.36 56 7 C54.02 7 52.04 7 50 7 Z M-2 10 C-2 10.33 -2 10.66 -2 11 C-0.02 11 1.96 11 4 11 C4 10.67 4 10.34 4 10 C2.02 10 0.04 10 -2 10 Z M68 10 C68 10.33 68 10.66 68 11 C69.98 11 71.96 11 74 11 C74 10.67 74 10.34 74 10 C72.02 10 70.04 10 68 10 Z M99 10 C99 10.33 99 10.66 99 11 C100.98 11 102.96 11 105 11 C105 10.67 105 10.34 105 10 C103.02 10 101.04 10 99 10 Z M115 10 C115 10.33 115 10.66 115 11 C116.98 11 118.96 11 121 11 C121 10.67 121 10.34 121 10 C119.02 10 117.04 10 115 10 Z " fill="#213C2B" transform="translate(17,12)"/>
<path d="M0 0 C0.99 0 1.98 0 3 0 C4.60546875 1.75 4.60546875 1.75 6.1875 4 C6.71730469 4.7425 7.24710938 5.485 7.79296875 6.25 C8.19128906 6.8275 8.58960937 7.405 9 8 C9.144375 6.865625 9.28875 5.73125 9.4375 4.5625 C10 1 10 1 11 0 C12.66617115 -0.04063832 14.33388095 -0.042721 16 0 C16 2.64 16 5.28 16 8 C20.05920798 8.57449334 20.05920798 8.57449334 24 8 C26.49126669 5.62339412 28.25736814 2.95719346 30 0 C35.13328252 0.792311 36.87556452 4.09445564 40 8 C43.465 4.04 43.465 4.04 47 0 C52.09010542 2.54505271 53.76129399 4.2891549 57 9 C57 12.3 57 15.6 57 19 C31.26 19 5.52 19 -21 19 C-19.35 17.68 -17.7 16.36 -16 15 C-16 15.66 -16 16.32 -16 17 C-14.35 17 -12.7 17 -11 17 C-11.33 15.02 -11.66 13.04 -12 11 C-10.35 11 -8.7 11 -7 11 C-6.773125 10.29875 -6.54625 9.5975 -6.3125 8.875 C-4.6486479 5.2303716 -2.76998691 2.90510822 0 0 Z M-2 10 C-2 10.33 -2 10.66 -2 11 C-0.02 11 1.96 11 4 11 C4 10.67 4 10.34 4 10 C2.02 10 0.04 10 -2 10 Z M29 10 C29 10.33 29 10.66 29 11 C30.98 11 32.96 11 35 11 C35 10.67 35 10.34 35 10 C33.02 10 31.04 10 29 10 Z M45 10 C45 10.33 45 10.66 45 11 C46.98 11 48.96 11 51 11 C51 10.67 51 10.34 51 10 C49.02 10 47.04 10 45 10 Z " fill="#1B392B" transform="translate(87,12)"/>
<path d="M0 0 C4.2742558 1.5830577 6.26531794 4.50568404 9 8 C9.33 5.36 9.66 2.72 10 0 C11.89510699 -0.08160748 13.79124504 -0.13946459 15.6875 -0.1875 C16.74324219 -0.22230469 17.79898438 -0.25710938 18.88671875 -0.29296875 C22.39640332 0.0373027 24.21847767 0.86699289 27 3 C27.625 5.5 27.625 5.5 27 8 C23.01292566 11.11219101 19.92160821 11.35644606 14.94921875 11.29296875 C14.29041214 11.28872391 13.63160553 11.28447906 12.95283508 11.28010559 C10.86396115 11.26341196 8.77607861 11.22578058 6.6875 11.1875 C5.26498797 11.17244097 3.8424607 11.15875469 2.41992188 11.14648438 C-1.05370351 11.11354003 -4.52675487 11.06182408 -8 11 C-7.67 9.68 -7.34 8.36 -7 7 C-6.34 7 -5.68 7 -5 7 C-4.9175 6.401875 -4.835 5.80375 -4.75 5.1875 C-3.79544128 2.4033704 -2.42867729 1.56688858 0 0 Z M16 3 C16 4.65 16 6.3 16 8 C17.65 7.67 19.3 7.34 21 7 C21 6.01 21 5.02 21 4 C19.35 3.67 17.7 3.34 16 3 Z " fill="#C49130" transform="translate(17,12)"/>
<path d="M0 0 C0.90105469 0.02707031 1.80210938 0.05414063 2.73046875 0.08203125 C3.76107422 0.13423828 3.76107422 0.13423828 4.8125 0.1875 C7.00911992 4.30616235 6.84080303 6.31367425 5.8125 10.8125 C5.626875 11.62976562 5.44125 12.44703125 5.25 13.2890625 C5.105625 13.91554688 4.96125 14.54203125 4.8125 15.1875 C3.1625 14.8575 1.5125 14.5275 -0.1875 14.1875 C-0.1875 14.8475 -0.1875 15.5075 -0.1875 16.1875 C-0.8475 16.1875 -1.5075 16.1875 -2.1875 16.1875 C-2.1875 15.5275 -2.1875 14.8675 -2.1875 14.1875 C-2.80625 14.14625 -3.425 14.105 -4.0625 14.0625 C-6.1875 13.1875 -6.1875 13.1875 -7.4375 10.375 C-8.1875 7.1875 -8.1875 7.1875 -8.1875 3.1875 C-5.93076099 -0.14887495 -3.85834175 -0.150325 0 0 Z " fill="#17372B" transform="translate(53.1875,11.8125)"/>
<path d="M0 0 C0.99 0.66 1.98 1.32 3 2 C1.99694017 4.73561771 1.20376788 5.86415475 -1.25 7.5 C-4 8 -4 8 -7.3125 6.125 C-8.199375 5.42375 -9.08625 4.7225 -10 4 C-9.67 3.01 -9.34 2.02 -9 1 C-5.98131566 -0.50934217 -3.32702771 -0.17510672 0 0 Z " fill="#BE9548" transform="translate(145,7)"/>
<path d="M0 0 C-0.33 1.98 -0.66 3.96 -1 6 C-4.63 6 -8.26 6 -12 6 C-12 4.68 -12 3.36 -12 2 C-8.09971775 -0.60018816 -4.52565431 -0.15085514 0 0 Z " fill="#3F4A2A" transform="translate(47,23)"/>
<path d="M0 0 C2.64 0.33 5.28 0.66 8 1 C8 2.65 8 4.3 8 6 C6.88625 5.7525 6.88625 5.7525 5.75 5.5 C2.80993422 4.88074304 2.80993422 4.88074304 -1 5 C-1.66 4.67 -2.32 4.34 -3 4 C-3 4.66 -3 5.32 -3 6 C-3.66 6 -4.32 6 -5 6 C-5 4.68 -5 3.36 -5 2 C-3.35 2 -1.7 2 0 2 C0 1.34 0 0.68 0 0 Z " fill="#51542B" transform="translate(86,23)"/>
<path d="M0 0 C2.97 0.495 2.97 0.495 6 1 C6 1.66 6 2.32 6 3 C6.99 3 7.98 3 9 3 C9 3.99 9 4.98 9 6 C0.42857143 6.14285714 0.42857143 6.14285714 -3 5 C-2.67 4.01 -2.34 3.02 -2 2 C-1.34 2 -0.68 2 0 2 C0 1.34 0 0.68 0 0 Z " fill="#4F522A" transform="translate(21,23)"/>
<path d="M0 0 C0 1.32 0 2.64 0 4 C-3.63 4 -7.26 4 -11 4 C-8.07259277 -1.85481447 -5.89962965 -1.17992593 0 0 Z " fill="#5A582B" transform="translate(116,25)"/>
<path d="M0 0 C5.75 -0.125 5.75 -0.125 8 1 C7.67 1.99 7.34 2.98 7 4 C4.69 4 2.38 4 0 4 C0 2.68 0 1.36 0 0 Z " fill="#555633" transform="translate(138,8)"/>
<path d="M0 0 C-1.1875 1.5 -1.1875 1.5 -3 3 C-5.6875 3.1875 -5.6875 3.1875 -8 3 C-8 2.01 -8 1.02 -8 0 C-4.71303767 -0.79953138 -3.28976808 -1.09658936 0 0 Z " fill="#665D2A" transform="translate(61,26)"/>
<path d="M0 0 C1.65 0 3.3 0 5 0 C5.33 1.32 5.66 2.64 6 4 C5.34 4 4.68 4 4 4 C4 3.34 4 2.68 4 2 C3.34 2 2.68 2 2 2 C2 2.66 2 3.32 2 4 C1.34 4 0.68 4 0 4 C0 2.68 0 1.36 0 0 Z " fill="#5C582A" transform="translate(130,25)"/>
<path d="M0 0 C2.475 0.495 2.475 0.495 5 1 C5 1.99 5 2.98 5 4 C3.35 4 1.7 4 0 4 C0 2.68 0 1.36 0 0 Z " fill="#77662A" transform="translate(25,25)"/>
</svg>
